<?xml version="1.0" encoding="UTF-8" standalone="no"?>
<!-- Created with Inkscape (http://www.inkscape.org/) -->

<svg
   xmlns:dc="http://purl.org/dc/elements/1.1/"
   xmlns:cc="http://creativecommons.org/ns#"
   xmlns:rdf="http://www.w3.org/1999/02/22-rdf-syntax-ns#"
   xmlns:svg="http://www.w3.org/2000/svg"
   xmlns="http://www.w3.org/2000/svg"
   xmlns:sodipodi="http://sodipodi.sourceforge.net/DTD/sodipodi-0.dtd"
   xmlns:inkscape="http://www.inkscape.org/namespaces/inkscape"
   width="230"
   height="149.12498"
   id="svg2"
   version="1.1"
   inkscape:version="0.48.5 r10040"
   sodipodi:docname="guru-gate-logo.svg">
  <defs
     id="defs4" />
  <sodipodi:namedview
     id="base"
     pagecolor="#ffffff"
     bordercolor="#666666"
     borderopacity="1.0"
     inkscape:pageopacity="0.0"
     inkscape:pageshadow="2"
     inkscape:zoom="1.979899"
     inkscape:cx="-4.67007"
     inkscape:cy="2.6510926"
     inkscape:document-units="px"
     inkscape:current-layer="layer1"
     showgrid="true"
     fit-margin-top="10"
     fit-margin-left="10"
     fit-margin-right="10"
     fit-margin-bottom="10"
     inkscape:window-width="1647"
     inkscape:window-height="856"
     inkscape:window-x="78"
     inkscape:window-y="78"
     inkscape:window-maximized="0">
    <inkscape:grid
       type="xygrid"
       id="grid2985"
       empspacing="5"
       visible="true"
       enabled="true"
       snapvisiblegridlinesonly="true"
       originx="-90px"
       originy="1.6377987px" />
  </sodipodi:namedview>
  <metadata
     id="metadata7">
    <rdf:RDF>
      <cc:Work
         rdf:about="">
        <dc:format>image/svg+xml</dc:format>
        <dc:type
           rdf:resource="http://purl.org/dc/dcmitype/StillImage" />
        <dc:title></dc:title>
      </cc:Work>
    </rdf:RDF>
  </metadata>
  <g
     inkscape:label="Layer 1"
     inkscape:groupmode="layer"
     id="layer1"
     transform="translate(-90,-904.875)">
    <rect
       style="fill:#000000;fill-opacity:1;stroke:none"
       id="rect2989"
       width="40.000004"
       height="65"
       x="100"
       y="947.36218" />
    <path
       id="path4360-6"
       style="fill:#7bb27b;fill-opacity:1;stroke:none"
       d="m 270,952.36219 c -40,10 -95,45 -120,100.00001 l 95,0 c -25,-60.00001 55,-65.00001 65,-105.00001 z"
       inkscape:connector-curvature="0"
       sodipodi:nodetypes="ccccc" />
    <path
       style="fill:none;stroke:#000000;stroke-width:5;stroke-linecap:butt;stroke-linejoin:miter;stroke-miterlimit:4;stroke-opacity:1;stroke-dasharray:none"
       d="m 140,952.36218 c 50,0 30,-35 60,-35 l 0,90.00002 -60,0 z"
       id="path3009"
       inkscape:connector-curvature="0"
       sodipodi:nodetypes="ccccc" />
    <path
       id="path3805"
       style="fill:none;stroke:#ffffff;stroke-width:3.5;stroke-linecap:butt;stroke-linejoin:miter;stroke-miterlimit:4;stroke-opacity:1;stroke-dasharray:none"
       d="m 124,987.36218 0,9 m -8,-9 0,9 m 6,-31 c 0,1.10457 -0.89543,2 -2,2 -1.10457,0 -2,-0.89543 -2,-2 0,-1.10457 0.89543,-2 2,-2 1.10457,0 2,0.89543 2,2 z m -12,22 20,0 c 0,0 0,-5 0,-10 0,-5 -5,-10 -10,-10 -5,0 -10,5 -10,10 0,10 0,5 0,10 z"
       inkscape:connector-curvature="0" />
    <path
       id="path3805-4"
       style="fill:none;stroke:#000000;stroke-width:1.82692313;stroke-linecap:butt;stroke-linejoin:miter;stroke-miterlimit:4;stroke-opacity:1;stroke-dasharray:none"
       d="m 121.04395,943.8457 0,4.6978 m -4.17582,-4.6978 0,4.6978 M 120,932.36218 c 0,0.57656 -0.4674,1.04396 -1.04396,1.04396 -0.57656,0 -1.04396,-0.4674 -1.04396,-1.04396 0,-0.57656 0.4674,-1.04395 1.04396,-1.04395 0.57656,0 1.04396,0.46739 1.04396,1.04395 z m -6.26374,11.48352 10.43956,0 c 0,0 0,-2.60989 0,-5.21978 0,-2.60989 -2.60989,-5.21978 -5.21978,-5.21978 -2.60989,0 -5.21978,2.60989 -5.21978,5.21978 0,5.21978 0,2.60989 0,5.21978 z"
       inkscape:connector-curvature="0" />
    <rect
       style="fill:#000000;fill-opacity:1;stroke:none"
       id="rect2989-0"
       width="40.000004"
       height="65"
       x="-310"
       y="947.36218"
       transform="scale(-1,1)" />
    <path
       id="path3805-48"
       style="fill:none;stroke:#ffffff;stroke-width:3.5;stroke-linecap:butt;stroke-linejoin:miter;stroke-miterlimit:4;stroke-opacity:1;stroke-dasharray:none"
       d="m 286,987.36218 0,9 m 8,-9 0,9 m -6,-31 c 0,1.1046 0.89543,2 2,2 1.10457,0 2,-0.8954 2,-2 0,-1.1046 -0.89543,-2 -2,-2 -1.10457,0 -2,0.8954 -2,2 z m 12,22 -20,0 c 0,0 0,-5 0,-10 0,-5 5,-10 10,-10 5,0 10,5 10,10 0,10 0,5 0,10 z"
       inkscape:connector-curvature="0" />
    <path
       id="path3805-4-8"
       style="fill:none;stroke:#000000;stroke-width:1.82692313;stroke-linecap:butt;stroke-linejoin:miter;stroke-miterlimit:4;stroke-opacity:1;stroke-dasharray:none"
       d="m 286.86813,943.84571 0,4.6978 m 4.17583,-4.6978 0,4.6978 m -3.13187,-16.18133 c 0,0.57656 0.46739,1.04396 1.04395,1.04396 0.57657,0 1.04396,-0.4674 1.04396,-1.04396 0,-0.57656 -0.46739,-1.04396 -1.04396,-1.04396 -0.57656,0 -1.04395,0.4674 -1.04395,1.04396 z m 6.26373,11.48353 -10.43956,0 c 0,0 0,-2.60989 0,-5.21978 0,-2.60989 2.60989,-5.21979 5.21978,-5.21979 2.60989,0 5.21978,2.6099 5.21978,5.21979 0,5.21978 0,2.60989 0,5.21978 z"
       inkscape:connector-curvature="0" />
    <path
       style="fill:none;stroke:#000000;stroke-width:2.4000001;stroke-linecap:butt;stroke-linejoin:miter;stroke-miterlimit:4;stroke-opacity:1;stroke-dasharray:none"
       d="m 165,972.36218 -10,-5 10,-5 10,5 z"
       id="path3943"
       inkscape:connector-curvature="0"
       sodipodi:nodetypes="ccccc" />
    <path
       style="fill:none;stroke:#000000;stroke-width:2;stroke-linecap:butt;stroke-linejoin:miter;stroke-miterlimit:4;stroke-opacity:1;stroke-dasharray:none"
       d="m 165,972.36218 0,10"
       id="path3945"
       inkscape:connector-curvature="0" />
    <path
       style="fill:none;stroke:#000000;stroke-width:2;stroke-linecap:butt;stroke-linejoin:miter;stroke-miterlimit:4;stroke-opacity:1;stroke-dasharray:none"
       d="m 175,967.36218 15,0 0,15"
       id="path3947"
       inkscape:connector-curvature="0"
       sodipodi:nodetypes="ccc" />
    <rect
       style="fill:none;stroke:#000000;stroke-width:2.4000001;stroke-linecap:butt;stroke-miterlimit:4;stroke-opacity:1;stroke-dasharray:none"
       id="rect3949"
       width="20"
       height="10"
       x="155"
       y="982.36218" />
    <path
       style="fill:none;stroke:#000000;stroke-width:2.4000001;stroke-linecap:butt;stroke-miterlimit:4;stroke-opacity:1"
       d="m 200,992.36218 -20,0 0,-10 20,0"
       id="rect3949-1"
       inkscape:connector-curvature="0"
       sodipodi:nodetypes="cccc" />
    <path
       style="fill:none;stroke:#000000;stroke-width:2;stroke-linecap:butt;stroke-linejoin:miter;stroke-miterlimit:4;stroke-opacity:1;stroke-dasharray:none"
       d="m 165,992.36218 0,15.00002"
       id="path3945-1"
       inkscape:connector-curvature="0"
       sodipodi:nodetypes="cc" />
    <path
       style="fill:none;stroke:#000000;stroke-width:2;stroke-linecap:butt;stroke-linejoin:miter;stroke-miterlimit:4;stroke-opacity:1;stroke-dasharray:none"
       d="m 190,992.36218 0,15.00002"
       id="path3945-1-5"
       inkscape:connector-curvature="0"
       sodipodi:nodetypes="cc" />
    <path
       style="fill:none;stroke:#000000;stroke-width:2.4000001;stroke-linecap:butt;stroke-miterlimit:4;stroke-opacity:1"
       d="m 140,982.36218 10,0 0,10 -10,0"
       id="rect3949-2"
       inkscape:connector-curvature="0"
       sodipodi:nodetypes="cccc" />
    <path
       style="fill:none;stroke:#000000;stroke-width:2;stroke-linecap:butt;stroke-linejoin:miter;stroke-miterlimit:4;stroke-opacity:1;stroke-dasharray:none"
       d="m 155,967.36218 -15,0 0,15"
       id="path3947-6"
       inkscape:connector-curvature="0"
       sodipodi:nodetypes="ccc" />
    <path
       style="fill:none;stroke:#000000;stroke-width:2;stroke-linecap:butt;stroke-linejoin:miter;stroke-miterlimit:4;stroke-opacity:1;stroke-dasharray:none"
       d="m 165,947.36218 0,15"
       id="path3945-1-5-4"
       inkscape:connector-curvature="0"
       sodipodi:nodetypes="cc" />
    <path
       style="fill:none;stroke:#000000;stroke-width:2.4000001;stroke-linecap:butt;stroke-miterlimit:4;stroke-opacity:1"
       d="m 175,937.36218 0,10 -10,0"
       id="rect3949-22"
       inkscape:connector-curvature="0"
       sodipodi:nodetypes="ccc" />
    <path
       style="fill:none;stroke:#000000;stroke-width:2;stroke-linecap:butt;stroke-linejoin:miter;stroke-miterlimit:4;stroke-opacity:1;stroke-dasharray:none"
       d="m 175,942.36218 15,0 0,-10"
       id="path3947-1"
       inkscape:connector-curvature="0"
       sodipodi:nodetypes="ccc" />
    <path
       style="fill:none;stroke:#000000;stroke-width:2.4000001;stroke-linecap:butt;stroke-miterlimit:4;stroke-opacity:1"
       d="m 200,932.36218 -20,0 m 5,-10 15,0"
       id="rect3949-1-6"
       inkscape:connector-curvature="0"
       sodipodi:nodetypes="cccc" />
    <g
       id="g4344"
       transform="translate(16,-82.500017)">
      <path
         sodipodi:nodetypes="ccccc"
         inkscape:connector-curvature="0"
         id="path3009-8"
         d="m 255,1037.3622 c -30,25 -18,-20 -36,-5 l 0,90 36,-30 z"
         style="fill:none;stroke:#000000;stroke-width:3.87298346;stroke-linecap:butt;stroke-linejoin:miter;stroke-miterlimit:4;stroke-opacity:1;stroke-dasharray:none" />
      <path
         sodipodi:nodetypes="ccccc"
         inkscape:connector-curvature="0"
         id="path3943-6"
         d="m 240,1069.8622 6,-10 -6,0 -6,10 z"
         style="fill:none;stroke:#000000;stroke-width:1.85903203;stroke-linecap:butt;stroke-linejoin:miter;stroke-miterlimit:4;stroke-opacity:1;stroke-dasharray:none" />
      <path
         inkscape:connector-curvature="0"
         id="path3945-5"
         d="m 240,1069.8622 0,10"
         style="fill:none;stroke:#000000;stroke-width:1.54919326;stroke-linecap:butt;stroke-linejoin:miter;stroke-miterlimit:4;stroke-opacity:1;stroke-dasharray:none" />
      <path
         sodipodi:nodetypes="ccc"
         inkscape:connector-curvature="0"
         id="path3947-0"
         d="m 234,1069.8622 -9,7.5 0,15"
         style="fill:none;stroke:#000000;stroke-width:1.54919326;stroke-linecap:butt;stroke-linejoin:miter;stroke-miterlimit:4;stroke-opacity:1;stroke-dasharray:none" />
      <rect
         transform="matrix(-0.76822183,0.64018374,0,1,0,0)"
         y="1279.8618"
         x="-320.22"
         height="10"
         width="15.620488"
         id="rect3949-28"
         style="fill:none;stroke:#000000;stroke-width:2.12101412;stroke-linecap:butt;stroke-miterlimit:4;stroke-opacity:1;stroke-dasharray:none" />
      <path
         sodipodi:nodetypes="cccc"
         inkscape:connector-curvature="0"
         id="rect3949-1-60"
         d="m 219,1107.3622 12,-10 0,-10 -12,10"
         style="fill:none;stroke:#000000;stroke-width:1.85903203;stroke-linecap:butt;stroke-miterlimit:4;stroke-opacity:1" />
      <path
         sodipodi:nodetypes="cc"
         inkscape:connector-curvature="0"
         id="path3945-1-2"
         d="m 240,1089.8622 0,15"
         style="fill:none;stroke:#000000;stroke-width:1.54919326;stroke-linecap:butt;stroke-linejoin:miter;stroke-miterlimit:4;stroke-opacity:1;stroke-dasharray:none" />
      <path
         sodipodi:nodetypes="cc"
         inkscape:connector-curvature="0"
         id="path3945-1-5-48"
         d="m 225,1102.3622 0,15"
         style="fill:none;stroke:#000000;stroke-width:1.54919326;stroke-linecap:butt;stroke-linejoin:miter;stroke-miterlimit:4;stroke-opacity:1;stroke-dasharray:none" />
      <path
         sodipodi:nodetypes="cccc"
         inkscape:connector-curvature="0"
         id="rect3949-2-6"
         d="m 255,1067.3622 -6,5 0,10 6,-5"
         style="fill:none;stroke:#000000;stroke-width:1.85903203;stroke-linecap:butt;stroke-miterlimit:4;stroke-opacity:1" />
      <path
         sodipodi:nodetypes="ccc"
         inkscape:connector-curvature="0"
         id="path3947-6-5"
         d="m 246,1059.8622 9,-7.5 0,15"
         style="fill:none;stroke:#000000;stroke-width:1.54919326;stroke-linecap:butt;stroke-linejoin:miter;stroke-miterlimit:4;stroke-opacity:1;stroke-dasharray:none" />
      <path
         sodipodi:nodetypes="cc"
         inkscape:connector-curvature="0"
         id="path3945-1-5-4-0"
         d="m 240,1044.8622 0,15"
         style="fill:none;stroke:#000000;stroke-width:1.54919326;stroke-linecap:butt;stroke-linejoin:miter;stroke-miterlimit:4;stroke-opacity:1;stroke-dasharray:none" />
      <path
         sodipodi:nodetypes="ccc"
         inkscape:connector-curvature="0"
         id="rect3949-22-9"
         d="m 234,1039.8622 0,10 6,-5"
         style="fill:none;stroke:#000000;stroke-width:1.85903203;stroke-linecap:butt;stroke-miterlimit:4;stroke-opacity:1" />
      <path
         sodipodi:nodetypes="ccc"
         inkscape:connector-curvature="0"
         id="path3947-1-0"
         d="m 234,1044.8622 -9,7.5 0,-10"
         style="fill:none;stroke:#000000;stroke-width:1.54919326;stroke-linecap:butt;stroke-linejoin:miter;stroke-miterlimit:4;stroke-opacity:1;stroke-dasharray:none" />
      <path
         sodipodi:nodetypes="cccc"
         inkscape:connector-curvature="0"
         id="rect3949-1-6-0"
         d="m 219,1047.3622 12,-10 m -3,-7.5 -9,7.5"
         style="fill:none;stroke:#000000;stroke-width:1.85903203;stroke-linecap:butt;stroke-miterlimit:4;stroke-opacity:1" />
    </g>
  </g>
</svg>
